<svg id="visual" viewBox="0 0 900 200" width="900" height="200" xmlns="http://www.w3.org/2000/svg" xmlns:xlink="http://www.w3.org/1999/xlink" version="1.1"><rect x="0" y="0" width="900" height="200" fill="#222222"></rect><path d="M0 82L18.8 81C37.7 80 75.3 78 112.8 88.3C150.3 98.7 187.7 121.3 225.2 129.5C262.7 137.7 300.3 131.3 337.8 122.5C375.3 113.7 412.7 102.3 450.2 99C487.7 95.7 525.3 100.3 562.8 104.2C600.3 108 637.7 111 675.2 113.2C712.7 115.3 750.3 116.7 787.8 110.3C825.3 104 862.7 90 881.3 83L900 76L900 201L881.3 201C862.7 201 825.3 201 787.8 201C750.3 201 712.7 201 675.2 201C637.7 201 600.3 201 562.8 201C525.3 201 487.7 201 450.2 201C412.7 201 375.3 201 337.8 201C300.3 201 262.7 201 225.2 201C187.7 201 150.3 201 112.8 201C75.3 201 37.7 201 18.8 201L0 201Z" fill="#F67E7D"></path></svg>