<svg id="visual" viewBox="0 0 900 200" width="900" height="200" xmlns="http://www.w3.org/2000/svg" xmlns:xlink="http://www.w3.org/1999/xlink" version="1.1"><rect x="0" y="0" width="900" height="200" fill="#508CA4"></rect><path d="M0 157L21.5 145.3C43 133.7 86 110.3 128.8 104.7C171.7 99 214.3 111 257.2 122.8C300 134.7 343 146.3 385.8 153.3C428.7 160.3 471.3 162.7 514.2 161C557 159.3 600 153.7 642.8 147.2C685.7 140.7 728.3 133.3 771.2 128.2C814 123 857 120 878.5 118.5L900 117L900 201L878.5 201C857 201 814 201 771.2 201C728.3 201 685.7 201 642.8 201C600 201 557 201 514.2 201C471.3 201 428.7 201 385.8 201C343 201 300 201 257.2 201C214.3 201 171.7 201 128.8 201C86 201 43 201 21.5 201L0 201Z" fill="#222222" stroke-linecap="round" stroke-linejoin="miter"></path></svg>