<svg id="visual" viewBox="0 0 900 200" width="900" height="200" xmlns="http://www.w3.org/2000/svg" xmlns:xlink="http://www.w3.org/1999/xlink" version="1.1"><rect x="0" y="0" width="900" height="200" fill="#e6ffff"></rect><path d="M0 110L25 107.5C50 105 100 100 150 109.7C200 119.3 250 143.7 300 153C350 162.3 400 156.7 450 142.5C500 128.3 550 105.7 600 94.5C650 83.3 700 83.7 750 87.5C800 91.3 850 98.7 875 102.3L900 106L900 201L875 201C850 201 800 201 750 201C700 201 650 201 600 201C550 201 500 201 450 201C400 201 350 201 300 201C250 201 200 201 150 201C100 201 50 201 25 201L0 201Z" fill="#222" stroke-linecap="round" stroke-linejoin="miter"></path></svg>