<svg id="visual" viewBox="0 0 900 200" width="900" height="200" xmlns="http://www.w3.org/2000/svg" xmlns:xlink="http://www.w3.org/1999/xlink" version="1.1"><rect x="0" y="0" width="900" height="200" fill="#222222"></rect><path d="M0 79L18.8 80.2C37.7 81.3 75.3 83.7 112.8 81C150.3 78.3 187.7 70.7 225.2 67.2C262.7 63.7 300.3 64.3 337.8 70.7C375.3 77 412.7 89 450.2 93C487.7 97 525.3 93 562.8 90C600.3 87 637.7 85 675.2 83.2C712.7 81.3 750.3 79.7 787.8 77.2C825.3 74.7 862.7 71.3 881.3 69.7L900 68L900 201L881.3 201C862.7 201 825.3 201 787.8 201C750.3 201 712.7 201 675.2 201C637.7 201 600.3 201 562.8 201C525.3 201 487.7 201 450.2 201C412.7 201 375.3 201 337.8 201C300.3 201 262.7 201 225.2 201C187.7 201 150.3 201 112.8 201C75.3 201 37.7 201 18.8 201L0 201Z" fill="#63ccca"></path><path d="M0 119L18.8 119.3C37.7 119.7 75.3 120.3 112.8 118.2C150.3 116 187.7 111 225.2 108.2C262.7 105.3 300.3 104.7 337.8 108.3C375.3 112 412.7 120 450.2 122.5C487.7 125 525.3 122 562.8 122.5C600.3 123 637.7 127 675.2 128.7C712.7 130.3 750.3 129.7 787.8 127C825.3 124.3 862.7 119.7 881.3 117.3L900 115L900 201L881.3 201C862.7 201 825.3 201 787.8 201C750.3 201 712.7 201 675.2 201C637.7 201 600.3 201 562.8 201C525.3 201 487.7 201 450.2 201C412.7 201 375.3 201 337.8 201C300.3 201 262.7 201 225.2 201C187.7 201 150.3 201 112.8 201C75.3 201 37.7 201 18.8 201L0 201Z" fill="#53acbb"></path><path d="M0 153L18.8 151.3C37.7 149.7 75.3 146.3 112.8 148.7C150.3 151 187.7 159 225.2 160.2C262.7 161.3 300.3 155.7 337.8 153.3C375.3 151 412.7 152 450.2 154.7C487.7 157.3 525.3 161.7 562.8 160.2C600.3 158.7 637.7 151.3 675.2 149C712.7 146.7 750.3 149.3 787.8 148.8C825.3 148.3 862.7 144.7 881.3 142.8L900 141L900 201L881.3 201C862.7 201 825.3 201 787.8 201C750.3 201 712.7 201 675.2 201C637.7 201 600.3 201 562.8 201C525.3 201 487.7 201 450.2 201C412.7 201 375.3 201 337.8 201C300.3 201 262.7 201 225.2 201C187.7 201 150.3 201 112.8 201C75.3 201 37.7 201 18.8 201L0 201Z" fill="#508ca4"></path></svg>