<svg id="visual" viewBox="0 0 900 200" width="900" height="200" xmlns="http://www.w3.org/2000/svg" xmlns:xlink="http://www.w3.org/1999/xlink" version="1.1"><rect x="0" y="0" width="900" height="200" fill="#F67E7D"></rect><path d="M0 143L25 143C50 143 100 143 150 137.3C200 131.7 250 120.3 300 120.5C350 120.7 400 132.3 450 137.2C500 142 550 140 600 132.5C650 125 700 112 750 114.2C800 116.3 850 133.7 875 142.3L900 151L900 201L875 201C850 201 800 201 750 201C700 201 650 201 600 201C550 201 500 201 450 201C400 201 350 201 300 201C250 201 200 201 150 201C100 201 50 201 25 201L0 201Z" fill="#222222" stroke-linecap="round" stroke-linejoin="miter"></path></svg>